<svg xmlns="http://www.w3.org/2000/svg" viewBox="0 0 50 50" xmlns:xlink="http://www.w3.org/1999/xlink" xmlns:svg="http://www.w3.org/2000/svg">
    <g>
        <path fill="#e5e5e5" d="M 0.001 35.998 h 50 v 10.003 h -50 Z" />
        <path fill="#7fba00" d="M 2.001 38.061 h 46 v 5.941 h -46 Z" />
        <path fill="#fff" opacity="0.6" d="M 20.001 37.998 h 28 v 6.003 h -28 Z" />
        <path fill="#7a7a7a" d="M 18.001 36.002 h 4 v 9.999 h -4 Z" />
        <path fill="#fff" opacity="0.7" d="M 18.001 36 h 2 v 10 h -2 Z" />
        <path fill="#e5e5e5" d="M 0.001 19.999 h 50 v 10.003 h -50 Z" />
        <path fill="#7fba00" d="M 2.001 22.06 h 46 v 5.941 h -46 Z" />
        <path fill="#fff" opacity="0.6" d="M 36.001 21.993 h 12 v 6.003 h -12 Z" />
        <path fill="#7a7a7a" d="M 34.001 20.002 h 4 v 9.999 h -4 Z" />
        <path fill="#fff" opacity="0.7" d="M 34.001 20 h 2 v 10 h -2 Z" />
        <path fill="#e5e5e5" d="M 0.001 3.999 h 50 v 10.003 h -50 Z" />
        <path fill="#7fba00" d="M 2.001 6.06 h 46 v 5.941 h -46 Z" />
        <path fill="#fff" opacity="0.6" d="M 20.001 5.999 h 28 v 6.003 h -28 Z" />
        <path fill="#7a7a7a" d="M 18.001 4.002 h 4 v 9.999 h -4 Z" />
        <path fill="#fff" opacity="0.7" d="M 18.001 4 h 2 v 10 h -2 Z" />
        <path fill="#1e1e1e" opacity="0.2" d="M 22.001 36 h 2 v 10 h -2 Z m 0 -31.969 h 2 v 10 h -2 Z m 16 15.963 h 2 v 10 h -2 Z" />
    </g>
</svg>