<svg xmlns="http://www.w3.org/2000/svg" viewBox="0 0 16 16"><style>.icon-canvas-transparent{opacity:0;fill:#2d2d30}.icon-vs-out{fill:#2d2d30}.icon-vs-bg{fill:#c5c5c5}.icon-vs-fg{fill:#2b282e}</style><path class="icon-canvas-transparent" d="M16 16H0V0h16v16z" id="canvas"/><path class="icon-vs-out" d="M14 7V4h-1V1h-1.414l-.71.71c-.408-.409-.718-.7-.926-.871A3.807 3.807 0 0 0 7.54.001c-.86 0-1.719.278-2.417.782-.677.488-1.983 1.93-2.238 2.214l-.668.744L2 4v3H0v9h16V7h-2z" id="outline" style="display: none;"/><path class="icon-vs-bg" d="M15 8v7H1V8h1v6h12V8h1zM5 5H3v8h2V5zm3 1V5H6v8h2V6zm5 0h-1v6h-2V6H9v7h4V6zm-2.133-2.867c-.482-.502-1.189-1.224-1.549-1.52-.988-.808-2.505-.816-3.61-.019-.6.433-1.93 1.905-2.079 2.071l.743.669c.387-.43 1.486-1.616 1.921-1.929.732-.528 1.76-.536 2.391-.019.325.267 1.01.968 1.476 1.454L9 5h3V2l-1.133 1.133z" id="iconBg"/><path class="icon-vs-fg" d="M12 12h-2V6h2v6z" id="iconFg" style="display: none;"/></svg>