<svg xmlns="http://www.w3.org/2000/svg" viewBox="0 0 16 16"><style>.icon-canvas-transparent{opacity:0;fill:#2d2d30}.icon-vs-out{fill:#2d2d30}.icon-vs-bg{fill:#c5c5c5}</style><path class="icon-canvas-transparent" d="M16 16H0V0h16v16z" id="canvas"/><path class="icon-vs-out" d="M16 8A8 8 0 1 1 0 8a8 8 0 0 1 16 0z" id="outline" style="display: none;"/><path class="icon-vs-bg" d="M13.526 3.794c-1.349-1.784-3.482-2.742-5.528-2.742-1.524 0-3.004.435-4.222 1.436C.729 4.838.119 9.19 2.47 12.236c1.393 1.784 3.482 2.742 5.528 2.742 1.524 0 3.004-.435 4.222-1.436 3.047-2.35 3.657-6.745 1.306-9.748zm.348 5.745c-.261-.218-.609-.435-1.045-.783.131-.392.087-.914-.218-1.262-.392-.566-1.175-.653-1.698-.348A75.66 75.66 0 0 1 8.912 5.23c2.089-1.131 3.657-1.044 3.831-1.044 0 .044.044.044.087.087 1.175 1.567 1.479 3.525 1.044 5.266zm-3.831 1.653c-.044-.13-.087-.348-.218-.479a1.278 1.278 0 0 0-1.611-.305A12.04 12.04 0 0 1 6.56 9.32a2.507 2.507 0 0 0-.347-.303c.348-.566.392-1.262.044-1.828l.217-.218a10.055 10.055 0 0 1 1.611-1.305c.74.696 1.567 1.349 2.351 1.958-.218.435-.131.957.131 1.349.435.609 1.262.696 1.872.261.043 0 .043-.044.087-.044.566.392 1.001.696 1.219.827-.131.435-.392.914-.696 1.349-.437.131-1.482.262-3.006-.174zm1.872-7.833c-.958-.174-2.394-.131-4.005.74-.565-.609-1.088-1.218-1.697-1.828a5.608 5.608 0 0 1 1.872-.305c1.306.001 2.655.479 3.83 1.393zm-7.617-.174c.304-.261.652-.435 1.001-.653a11.728 11.728 0 0 0 1.654 2.046c-.566.391-1.088.827-1.698 1.436-.043.087-.13.13-.217.261a2.586 2.586 0 0 0-1.002.043c-.566-1.131-.533-2.02-.446-2.542.219-.243.407-.358.708-.591zM3.035 4.534c-.13.609-.218 1.436.261 2.437-.522.653-.522 1.567 0 2.176l.131.131c-.218.74-.305 1.48-.348 2.089-1.524-2.046-1.437-4.787-.044-6.833zm8.663 8.269c-1.088.827-2.394 1.219-3.7 1.219-1.393 0-2.742-.479-3.874-1.393-.044-.653 0-1.697.392-2.742.305 0 .566 0 .871-.131.131.131.305.305.522.392.609.435 1.219.827 1.741 1.132a.963.963 0 0 0 .261.827 1.157 1.157 0 0 0 1.698.218c.087-.087.218-.218.261-.305.958.218 1.741.261 2.351.261-.219.217-.306.347-.523.522z" id="iconBg"/></svg>