<svg xmlns="http://www.w3.org/2000/svg" width="16" height="16"><style>.icon-canvas-transparent{opacity:0;fill:#f6f6f6}.icon-vs-out{fill:#f6f6f6}.icon-vs-bg{fill:#424242}.icon-vs-fg{fill:#f0eff1}</style><path class="icon-canvas-transparent" d="M16 16H0V0h16v16z" id="canvas"/><path class="icon-vs-out" d="M16 9.816c0 1.615-1.174 2.978-2.731 3.172l-.317.027H7.257A3.254 3.254 0 0 1 4.939 12H0V9h1V8H0V5h5v2.232c.197-.199.418-.375.661-.518.466-1.568 1.854-2.659 3.477-2.659.813 0 1.6.282 2.231.792l.384-.025c1.435 0 2.658 1.027 2.984 2.42A3.209 3.209 0 0 1 16 9.816z" id="outline"/><path class="icon-vs-bg" d="M4 7H1V6h3v1zm0 1H2v1h2V8zm0 2H1v1h3v-1zm11-.205c0 1.121-.805 2.057-1.856 2.186l-.193.019H7.257c-1.266-.023-2.243-1.068-2.243-2.379 0-1.035.635-1.918 1.517-2.243.202-1.33 1.294-2.348 2.607-2.348a2.56 2.56 0 0 1 1.934.889c.216-.08.445-.123.682-.123 1.094 0 1.992.894 2.064 2.02A2.215 2.215 0 0 1 15 9.795zm-1 .002c0-.672-.493-1.217-1.102-1.217l-.258.037a1.28 1.28 0 0 0 .182-.663c0-.653-.479-1.181-1.069-1.181-.457 0-.843.316-.997.761-.125-.866-.799-1.531-1.618-1.531-.906 0-1.642.811-1.642 1.813 0 .157.023.306.058.451l-.28-.037c-.696 0-1.261.623-1.261 1.391 0 .766.556 1.381 1.243 1.393v.002h5.694v-.006c.585-.033 1.05-.561 1.05-1.213z" id="iconBg"/><path class="icon-vs-fg" d="M14 9.793c0 .652-.465 1.18-1.049 1.213v.006H7.257v-.002c-.688-.012-1.243-.627-1.243-1.393 0-.767.564-1.39 1.261-1.39l.279.037a1.947 1.947 0 0 1-.058-.451C7.496 6.811 8.231 6 9.138 6c.819 0 1.493.665 1.618 1.531.154-.444.54-.761.997-.761.591 0 1.069.527 1.069 1.181 0 .247-.067.473-.182.663l.258-.037c.609 0 1.102.544 1.102 1.216z" id="iconFg"/></svg>