<svg xmlns="http://www.w3.org/2000/svg" viewBox="0 0 16 16"><style>.icon-canvas-transparent{opacity:0;fill:#f6f6f6}.icon-vs-out{fill:#2d2d30}.icon-vs-bg{fill:#c5c5c5}</style><path class="icon-canvas-transparent" d="M16 16H0V0h16v16z" id="canvas"/><path class="icon-vs-out" d="M5.986 16l-.373-2.237-1.846 1.317-2.848-2.847 1.319-1.847L0 10.013V5.986l2.238-.373L.919 3.767 3.768.919l1.846 1.319L5.986 0h4.028l.372 2.238L12.233.919l2.847 2.848-1.318 1.846L16 5.986v4.028l-2.238.372 1.318 1.847-2.847 2.847-1.847-1.318L10.013 16H5.986z" style="display: none;" id="outline"/><path class="icon-vs-bg" d="M9.964 3.257c-.146-.06-.295-.087-.443-.133L9.167 1H6.834L6.48 3.121c-.295.092-.581.21-.854.354l-1.75-1.25-1.65 1.65 1.252 1.752c-.073.137-.16.263-.221.409-.06.145-.087.295-.133.443L1 6.833v2.333l2.121.354c.092.295.21.581.354.854l-1.25 1.75 1.65 1.65 1.752-1.252c.137.072.262.159.408.22.146.06.296.087.444.133L6.833 15h2.333l.354-2.121a5.14 5.14 0 0 0 .854-.354l1.75 1.25 1.65-1.65-1.252-1.752c.072-.137.159-.262.22-.409.061-.146.087-.296.134-.444L15 9.167V6.834l-2.121-.354a5.14 5.14 0 0 0-.354-.854l1.25-1.75-1.65-1.65-1.752 1.251c-.137-.072-.263-.159-.409-.22zM10.212 8a2.212 2.212 0 1 1-4.423 0 2.212 2.212 0 0 1 4.423 0z" id="iconBg"/></svg>