<?xml version="1.0" encoding="UTF-8"?>
<svg xmlns="http://www.w3.org/2000/svg" xmlns:xlink="http://www.w3.org/1999/xlink" width="40pt" height="40pt" viewBox="0 0 40 40" version="1.1">
<g id="surface1">
<path style=" stroke:none;fill-rule:nonzero;fill:rgb(62%,62%,62%);fill-opacity:1;" d="M 32.15625 35.871094 C 28.53125 38.640625 24.261719 39.992188 20.019531 39.992188 C 14.003906 39.992188 8.054688 37.292969 4.125 32.148438 C -2.59375 23.378906 -0.933594 10.839844 7.851562 4.117188 C 11.472656 1.332031 15.75 0 19.984375 0 C 26 0 31.949219 2.699219 35.878906 7.847656 C 42.597656 16.613281 40.921875 29.160156 32.15625 35.871094 "/>
<path style=" stroke:none;fill-rule:nonzero;fill:rgb(100%,100%,100%);fill-opacity:1;" d="M 28.480469 23.503906 C 29.933594 25.398438 32.628906 25.738281 34.511719 24.304688 C 34.609375 24.230469 34.6875 24.140625 34.777344 24.058594 C 36.703125 25.414062 38.042969 26.3125 38.796875 26.824219 C 39.019531 26.246094 39.175781 25.691406 39.332031 25.113281 C 38.535156 24.519531 37.457031 23.691406 35.902344 22.425781 C 36.410156 21.082031 36.25 19.515625 35.316406 18.289062 C 33.980469 16.5625 31.617188 16.125 29.769531 17.1875 C 27.730469 15.363281 25.492188 13.265625 23.132812 10.921875 C 30.464844 6.980469 35.675781 7.558594 35.675781 7.558594 C 34.804688 6.449219 33.832031 5.476562 32.789062 4.597656 C 29.699219 4.121094 24.894531 4.175781 19.40625 7.09375 L 19.402344 7.09375 C 17.574219 5.175781 15.714844 3.125 13.816406 0.921875 C 12.910156 1.210938 12.023438 1.570312 11.167969 2 C 12.566406 4.289062 14.449219 6.597656 16.570312 8.851562 C 16.574219 8.855469 16.578125 8.859375 16.585938 8.867188 C 14.816406 10.101562 12.847656 11.757812 11.03125 13.675781 C 10.796875 13.925781 10.574219 14.171875 10.355469 14.421875 C 9.269531 14.195312 8.128906 14.261719 7.0625 14.648438 C 5.25 10.738281 5.398438 7.601562 5.683594 5.980469 C 4.898438 6.804688 4.164062 7.671875 3.53125 8.597656 C 3.058594 10.527344 2.921875 13.3125 4.316406 16.671875 C 2.703125 18.785156 2.625 21.78125 4.3125 23.996094 C 4.453125 24.175781 4.605469 24.347656 4.761719 24.511719 C 4.023438 27.019531 3.695312 29.441406 3.59375 31.519531 C 3.78125 31.777344 3.78125 31.984375 3.96875 32.234375 C 4.929688 33.464844 6.132812 34.503906 7.296875 35.441406 C 7.15625 33.242188 7.308594 29.996094 8.667969 26.34375 C 9.609375 26.414062 10.5625 26.269531 11.457031 25.890625 C 11.96875 26.34375 12.503906 26.796875 13.074219 27.261719 C 15.039062 28.8125 16.996094 30.023438 18.902344 30.976562 C 18.804688 31.945312 19.046875 32.953125 19.679688 33.789062 C 21.027344 35.53125 23.523438 35.855469 25.265625 34.523438 C 25.628906 34.246094 25.914062 33.910156 26.152344 33.550781 C 29.261719 34.246094 31.980469 34.367188 33.996094 34.367188 C 34.304688 34.367188 35.738281 32.417969 36.558594 31.210938 C 35.332031 31.46875 31.691406 31.96875 26.71875 30.539062 C 26.597656 29.980469 26.367188 29.4375 26 28.953125 C 24.738281 27.296875 22.425781 26.941406 20.707031 28.046875 C 18.976562 27.109375 17.167969 25.933594 15.300781 24.457031 C 14.921875 24.15625 14.5625 23.859375 14.210938 23.5625 C 15.351562 21.765625 15.472656 19.460938 14.464844 17.523438 C 14.695312 17.292969 14.921875 17.0625 15.164062 16.835938 C 17.011719 15.109375 18.75 13.726562 20.378906 12.617188 C 20.3125 12.554688 20.253906 12.492188 20.191406 12.429688 C 20.253906 12.492188 20.316406 12.550781 20.378906 12.613281 C 20.378906 12.613281 20.378906 12.613281 20.378906 12.613281 C 22.875 14.921875 25.523438 17.109375 28.03125 19.066406 C 27.367188 20.472656 27.472656 22.183594 28.480469 23.503906 Z M 28.480469 23.503906 "/>
</g>
</svg>
