<svg xmlns="http://www.w3.org/2000/svg" viewBox="0 0 16 16"><style>.icon-canvas-transparent{opacity:0;fill:#f6f6f6}.icon-vs-out{fill:#f6f6f6}.icon-vs-bg{fill:#424242}</style><path class="icon-canvas-transparent" d="M16 16H0V0h16v16z" id="canvas"/><path class="icon-vs-out" d="M15.812 9.713c.11.413.188.839.188 1.287a5 5 0 0 1-5 5c-.446 0-.87-.078-1.279-.191A8.004 8.004 0 0 1 8 16a8 8 0 1 1 8-8c0 .588-.068 1.16-.188 1.713z" id="outline" style="display: none;"/><path class="icon-vs-bg" d="M7.888 3.321c-.628-.676-1.217-1.352-1.882-2.029a6.958 6.958 0 0 1 6.163 1.094c-1.112-.113-2.612.034-4.281.935zm2.606 2.716C10.661 6.02 10.828 6 11 6c1.642 0 3.087.803 3.998 2.025L15 8c0-1.75-.646-3.346-1.708-4.573-.653.015-2.224.157-4.217 1.236.483.482.957.937 1.419 1.374zM6.525 8.81a5.018 5.018 0 0 1 2.84-2.522 26.04 26.04 0 0 1-1.27-1.109 12 12 0 0 0-1.91 1.548l-.258.258c.38.618.351 1.362.024 2.001.184-.075.375-.137.574-.176zm1.372 6.082a3.572 3.572 0 0 1-.441.082c.18.015.361.026.544.026.018 0 .034-.002.052-.003-.05-.037-.106-.066-.155-.105zM4 11.875c0-.647.206-1.242.543-1.74a3.384 3.384 0 0 1-.681.049c-.435 1.159-.502 2.301-.468 3.079.622.544 1.34.981 2.125 1.281A3.115 3.115 0 0 1 4 11.875zM2.417 6.727a4.067 4.067 0 0 1-.383-2.375A6.951 6.951 0 0 0 1 8a6.96 6.96 0 0 0 1.166 3.865c.053-.709.157-1.554.406-2.403l-.155-.155c-.619-.723-.619-1.806 0-2.58zm2.065-.826c.103-.155.206-.206.258-.31a14.233 14.233 0 0 1 2.013-1.703c-.7-.7-1.298-1.443-1.79-2.188a7.02 7.02 0 0 0-2.234 1.704c-.04.627.033 1.483.566 2.549.413-.103.774-.103 1.187-.052zm3.129 7.893l-.165.826a2.75 2.75 0 0 1-.678-.049l-.042-.841a1.905 1.905 0 0 1-.52-.26l-.698.465c-.085-.076-.172-.147-.248-.235s-.133-.185-.196-.28l.562-.623a1.912 1.912 0 0 1-.181-.552l-.825-.165a2.71 2.71 0 0 1 .05-.678l.841-.042c.059-.183.145-.358.26-.519l-.465-.699c.076-.084.147-.172.235-.248.088-.076.185-.133.28-.196l.623.563c.176-.09.362-.149.552-.181l.013-.065.54.42-.017.122-.1.039a1.342 1.342 0 0 0-1.009.319c-.042.036-.075.077-.111.117l-.044.018.003.025a1.345 1.345 0 0 0 .011 1.743c.147.17.328.288.522.366l.01.026.044-.005c.39.136.827.09 1.186-.148l.116-.015.074.099-.229.524c-.13.052-.259.106-.394.129zm5.407-.817a2.829 2.829 0 0 1-.699.519l.158 1.253a4.062 4.062 0 0 1-.988.251l-.459-1.177a2.842 2.842 0 0 1-.863-.123l-.773.993c-.156-.068-.314-.127-.464-.217-.15-.089-.278-.2-.412-.305l.505-1.153a2.878 2.878 0 0 1-.519-.7l-1.254.157a4.048 4.048 0 0 1-.25-.988l1.177-.458a2.83 2.83 0 0 1 .123-.862l-.993-.773c.068-.156.127-.314.217-.464.089-.15.2-.278.305-.412l1.154.505c.208-.212.444-.384.699-.52l-.158-1.252c.318-.125.649-.209.988-.251l.459 1.177c.289-.003.578.036.862.124l.774-.994c.156.068.314.127.464.217.15.089.278.2.412.305l-.505 1.154c.212.208.384.444.519.699l1.254-.157c.125.318.208.648.25.988l-1.177.458c.003.289-.036.579-.124.862l.994.773c-.068.156-.127.314-.217.464-.09.15-.2.278-.305.412l-1.154-.505zm-.983-3.715a2.022 2.022 0 1 0-2.07 3.476 2.022 2.022 0 0 0 2.773-.703 2.02 2.02 0 0 0-.703-2.773zM11 12.17a1.16 1.16 0 0 0 1.005-.571 1.16 1.16 0 0 0 .129-.885 1.158 1.158 0 0 0-.535-.718 1.165 1.165 0 0 0-1.604.406A1.17 1.17 0 0 0 11 12.17z" id="iconBg"/></svg>