<svg xmlns="http://www.w3.org/2000/svg" viewBox="0 0 16 16"><style>.icon-canvas-transparent{opacity:0;fill:#f6f6f6}.icon-vs-out{fill:#f6f6f6}.icon-vs-bg{fill:#424242}.icon-vs-fg{fill:#f0eff1}.icon-vs-action-green{fill:#388a34}</style><path class="icon-canvas-transparent" d="M16 16H0V0h16v16z" id="canvas"/><path class="icon-vs-out" d="M13.213 5.614C12.591 3.508 10.652 2 8.43 2c-1.452 0-2.82.645-3.763 1.751l-.105-.001C2.046 3.75 0 5.825 0 8.375S2.046 13 4.562 13h1.504c.273.266.584.494.934.661V16h3v-2.339c.35-.167.661-.395.934-.661h1.364C14.339 13 16 11.317 16 9.25c0-1.76-1.174-3.227-2.787-3.636z" id="outline"/><g id="iconFg"><path class="icon-vs-fg" d="M8.43 4zM14.018 9.25c0 .966-.77 1.75-1.719 1.75h-1.353a2.57 2.57 0 0 0 .054-.5V8h-1V6.5H9V8H8V6.5H7V8H6v2.5c0 .172.022.338.055.5H4.561c-1.424 0-2.579-1.175-2.579-2.625S3.136 5.75 4.561 5.75c.379 0 .736.088 1.06.238C6.051 4.829 7.141 4 8.43 4c1.662 0 3.009 1.371 3.009 3.063V7.5h.86c.949 0 1.719.783 1.719 1.75zM7 10.5c0 .176.036.343.092.5a1.519 1.519 0 0 0 .539.72 1.524 1.524 0 0 0 .447.214c.136.038.275.066.422.066s.286-.028.42-.067c.026-.008.053-.015.079-.024a1.456 1.456 0 0 0 .377-.197c.118-.087.223-.19.311-.307l.005-.006c.09-.12.163-.254.214-.399.058-.157.094-.324.094-.5V9H7v1.5z"/></g><path class="icon-vs-bg" d="M15 9.25c0 1.516-1.212 2.75-2.702 2.75h-.642c.15-.313.256-.648.307-1h.335c.95 0 1.719-.784 1.719-1.75 0-.967-.77-1.75-1.719-1.75h-.86v-.437C11.439 5.371 10.091 4 8.43 4c-1.289 0-2.379.829-2.808 1.988a2.52 2.52 0 0 0-1.061-.238c-1.424 0-2.579 1.175-2.579 2.625S3.137 11 4.561 11h.475c.051.352.158.687.307 1h-.782C2.598 12 1 10.374 1 8.375S2.598 4.75 4.561 4.75c.19 0 .38.016.567.047C5.859 3.695 7.096 3 8.43 3c2.014 0 3.684 1.526 3.953 3.501C13.834 6.547 15 7.763 15 9.25z" id="iconBg"/><g id="colorImportance"><path class="icon-vs-action-green" d="M10 8V6.5H9V8H8V6.5H7V8H6v2.5c0 1.208.86 2.217 2 2.449V15h1v-2.051c1.14-.232 2-1.242 2-2.449V8h-1zm0 2.5c0 .827-.673 1.5-1.5 1.5S7 11.327 7 10.5V9h3v1.5z"/></g></svg>