<svg xmlns="http://www.w3.org/2000/svg" width="16" height="16"><style type="text/css">.icon-canvas-transparent{opacity:0;fill:#F6F6F6;} .icon-vs-out{fill:#F6F6F6;} .icon-vs-fg{fill:#F0EFF1;} .icon-vs-bg{fill:#424242;}</style><path class="icon-canvas-transparent" d="M16 16h-16v-16h16v16z" id="canvas"/><path class="icon-vs-out" d="M6 16v-4.584c-1.047-.665-1.995-1.889-1.995-3.416s.948-2.751 1.995-3.416v-4.584h4v4.549c1.22.706 2 2.016 2 3.451 0 1.436-.78 2.746-2 3.451v4.549h-4z" id="outline" style="display: none;"/><path class="icon-vs-bg" d="M9 5.184v-4.184h-2v4.185c-1 .415-1.995 1.513-1.995 2.815s.995 2.4 1.995 2.815v4.185h2v-4.184c1.163-.413 2-1.512 2-2.816s-.837-2.403-2-2.816zm-1 4.816c-1.103 0-2-.897-2-2s.897-2 2-2 2 .897 2 2-.897 2-2 2z" id="iconBg"/><path class="icon-vs-fg" d="M8 10c-1.103 0-2-.897-2-2s.897-2 2-2 2 .897 2 2-.897 2-2 2z" id="iconFg" style="display: none;"/></svg>